<svg width="48" height="20" viewBox="0 0 48 20" fill="none" xmlns="http://www.w3.org/2000/svg">
    <rect width="48" height="20" rx="2" fill="#F6C423"/>
    <path fill-rule="evenodd" clip-rule="evenodd" d="M16.604 8.24902C16.6945 7.50627 15.7059 7.16793 15.3224 7.81042L14.3963 9.36175C14.2172 9.66172 13.7828 9.66172 13.6037 9.36175L11.5945 5.99583C11.3259 5.54589 10.6741 5.54589 10.4056 5.99583L8.3963 9.36175C8.21724 9.66172 7.78276 9.66172 7.6037 9.36175L6.67765 7.81042C6.29412 7.16793 5.30545 7.50627 5.39597 8.24902L6 13.2051C6 13.7716 6.33579 14.2308 6.75 14.2308H15.25C15.6642 14.2308 16 13.7716 16 13.2051L16.604 8.24902Z" fill="white"/>
    <path d="M23.82 7C24.4267 7 24.9533 7.1 25.4 7.3C25.8533 7.5 26.2 7.78667 26.44 8.16C26.68 8.53333 26.8 8.97667 26.8 9.49C26.8 9.99667 26.68 10.44 26.44 10.82C26.2 11.1933 25.8533 11.48 25.4 11.68C24.9533 11.88 24.4267 11.98 23.82 11.98H22.24V14H20.94V7H23.82ZM23.76 10.88C24.3267 10.88 24.7567 10.76 25.05 10.52C25.3433 10.28 25.49 9.93667 25.49 9.49C25.49 9.04333 25.3433 8.7 25.05 8.46C24.7567 8.22 24.3267 8.1 23.76 8.1H22.24V10.88H23.76ZM32.6782 14L31.2482 11.95C31.1882 11.9567 31.0982 11.96 30.9782 11.96H29.3982V14H28.0982V7H30.9782C31.5849 7 32.1115 7.1 32.5582 7.3C33.0115 7.5 33.3582 7.78667 33.5982 8.16C33.8382 8.53333 33.9582 8.97667 33.9582 9.49C33.9582 10.0167 33.8282 10.47 33.5682 10.85C33.3149 11.23 32.9482 11.5133 32.4682 11.7L34.0782 14H32.6782ZM32.6482 9.49C32.6482 9.04333 32.5015 8.7 32.2082 8.46C31.9149 8.22 31.4849 8.1 30.9182 8.1H29.3982V10.89H30.9182C31.4849 10.89 31.9149 10.77 32.2082 10.53C32.5015 10.2833 32.6482 9.93667 32.6482 9.49ZM38.6827 14.1C37.9693 14.1 37.326 13.9467 36.7527 13.64C36.1793 13.3267 35.7293 12.8967 35.4027 12.35C35.076 11.7967 34.9127 11.18 34.9127 10.5C34.9127 9.82 35.076 9.20667 35.4027 8.66C35.7293 8.10667 36.1793 7.67667 36.7527 7.37C37.326 7.05667 37.9693 6.9 38.6827 6.9C39.396 6.9 40.0393 7.05667 40.6127 7.37C41.186 7.67667 41.636 8.10333 41.9627 8.65C42.2893 9.19667 42.4527 9.81333 42.4527 10.5C42.4527 11.1867 42.2893 11.8033 41.9627 12.35C41.636 12.8967 41.186 13.3267 40.6127 13.64C40.0393 13.9467 39.396 14.1 38.6827 14.1ZM38.6827 12.96C39.1493 12.96 39.5693 12.8567 39.9427 12.65C40.316 12.4367 40.6093 12.1433 40.8227 11.77C41.036 11.39 41.1427 10.9667 41.1427 10.5C41.1427 10.0333 41.036 9.61333 40.8227 9.24C40.6093 8.86 40.316 8.56667 39.9427 8.36C39.5693 8.14667 39.1493 8.04 38.6827 8.04C38.216 8.04 37.796 8.14667 37.4227 8.36C37.0493 8.56667 36.756 8.86 36.5427 9.24C36.3293 9.61333 36.2227 10.0333 36.2227 10.5C36.2227 10.9667 36.3293 11.39 36.5427 11.77C36.756 12.1433 37.0493 12.4367 37.4227 12.65C37.796 12.8567 38.216 12.96 38.6827 12.96Z" fill="white"/>
</svg>
